<?xml version="1.0" encoding="utf-8"?>
<!-- Generator: Adobe Illustrator 22.0.1, SVG Export Plug-In . SVG Version: 6.00 Build 0)  -->
<svg version="1.1" id="Layer_1" xmlns="http://www.w3.org/2000/svg" xmlns:xlink="http://www.w3.org/1999/xlink" x="0px" y="0px"
	 width="250.1px" height="250.1px" viewBox="0 0 250.1 250.1" style="enable-background:new 0 0 250.1 250.1;" xml:space="preserve"
	>
<g>
	<defs>
		<rect id="SVGID_1_" x="0" y="0" width="250.1" height="250.1"/>
	</defs>
	<clipPath id="SVGID_2_">
		<use xlink:href="#SVGID_1_"  style="overflow:visible;"/>
	</clipPath>
	<g style="clip-path:url(#SVGID_2_);">
		<path style="fill:#E6B012;" d="M125.05,250.05c-68.92,0-125-56.07-125-125s56.07-125,125-125c68.93,0,125,56.08,125,125
			S193.97,250.05,125.05,250.05z"/>
		<path style="fill:#75263B;" d="M125.05,6.03C59.42,6.03,6.04,59.42,6.04,125.05c0,65.62,53.39,119.01,119.01,119.01
			c65.62,0,119.01-53.39,119.01-119.01C244.06,59.42,190.67,6.03,125.05,6.03z M125.05,216.44c-50.39,0-91.39-41-91.39-91.39
			s41-91.39,91.39-91.39c50.39,0,91.39,41,91.39,91.39S175.45,216.44,125.05,216.44z"/>
		<path style="fill:#FFFFFF;" d="M38.98,125.05c0-14.39,3.57-27.95,9.84-39.89l73.1,125.88C75.9,209.38,38.98,171.46,38.98,125.05z
			 M123.28,125.9L53.49,86.13l70.2,120.88L123.28,125.9z M198.16,79.71c-15.2-24.43-42.29-40.73-73.11-40.73
			c-30.83,0-57.91,16.3-73.12,40.73H198.16z M196.32,86.2l-69.49,39.19l0.41,81.84L196.32,86.2z M55.64,83.27l68.97,39.3l69.68-39.3
			H55.64z M201.16,84.91l-71.98,126.1c45.55-2.16,81.94-39.89,81.94-85.97C211.12,110.56,207.51,96.91,201.16,84.91z"/>
		<g>
			<path style="fill:#75263B;" d="M102.09,72.15V59.28c-1.24,1.17-2.72,2.02-4.41,2.59v-3.12c0.89-0.27,1.86-0.84,2.91-1.64
				c1.05-0.82,1.77-1.77,2.14-2.86h2.79v17.91H102.09z M110.67,68.02c0.25,1.49,0.79,2.59,1.67,3.33c0.84,0.75,1.99,1.12,3.39,1.12
				c1.92,0,3.51-0.72,4.71-2.17c1.22-1.44,1.82-3.81,1.82-7.05c0-3.21-0.6-5.5-1.74-6.93c-1.17-1.39-2.64-2.09-4.46-2.09
				c-1.67,0-3.01,0.55-4.11,1.67c-1.07,1.09-1.59,2.56-1.59,4.35c0,1.75,0.5,3.17,1.52,4.24c1.02,1.1,2.22,1.62,3.63,1.62
				c1.3,0,2.37-0.5,3.21-1.49c-0.12,2.04-0.45,3.39-0.95,4.04c-0.5,0.65-1.09,0.97-1.79,0.97c-0.57,0-1.02-0.15-1.35-0.47
				c-0.35-0.32-0.57-0.82-0.64-1.49L110.67,68.02z M117.65,58c0.52,0.6,0.77,1.44,0.77,2.57c0,0.99-0.23,1.77-0.67,2.26
				c-0.45,0.52-1,0.79-1.67,0.79c-0.67,0-1.24-0.27-1.69-0.82c-0.45-0.52-0.67-1.37-0.67-2.54c0-1.12,0.2-1.94,0.62-2.44
				c0.4-0.5,0.92-0.75,1.57-0.75C116.58,57.08,117.14,57.38,117.65,58 M136,68.99h-6.8c0.2-0.32,0.42-0.65,0.7-0.97
				c0.3-0.32,0.97-0.97,2.06-1.97c1.07-0.97,1.82-1.75,2.24-2.27c0.62-0.79,1.07-1.54,1.37-2.27c0.27-0.75,0.42-1.49,0.42-2.32
				c0-1.4-0.5-2.59-1.52-3.54c-1-0.95-2.39-1.42-4.14-1.42c-1.62,0-2.94,0.42-4.01,1.24c-1.07,0.8-1.72,2.17-1.92,4.04l3.41,0.35
				c0.05-0.99,0.3-1.72,0.73-2.14c0.42-0.42,0.99-0.65,1.7-0.65c0.72,0,1.29,0.2,1.71,0.62c0.4,0.4,0.6,1,0.6,1.74
				c0,0.7-0.22,1.4-0.7,2.1c-0.35,0.52-1.3,1.49-2.84,2.91c-1.92,1.8-3.19,3.21-3.84,4.29c-0.65,1.07-1.05,2.22-1.17,3.41H136V68.99
				z M138.18,67.42c0.15,1.49,0.77,2.71,1.84,3.64c1.05,0.94,2.39,1.4,4.01,1.4c1.7,0,3.12-0.55,4.26-1.64
				c1.14-1.1,1.72-2.44,1.72-4.01c0-1.07-0.3-1.99-0.92-2.76c-0.6-0.75-1.42-1.25-2.44-1.47c1.71-0.92,2.56-2.17,2.56-3.74
				c0-1.09-0.42-2.09-1.25-2.96c-1.01-1.07-2.36-1.62-4.03-1.62c-0.99,0-1.87,0.2-2.67,0.55c-0.8,0.37-1.42,0.89-1.84,1.54
				c-0.45,0.62-0.77,1.49-1,2.56l3.14,0.55c0.1-0.79,0.35-1.37,0.78-1.79c0.4-0.4,0.9-0.6,1.49-0.6c0.57,0,1.04,0.17,1.42,0.55
				c0.35,0.35,0.52,0.82,0.52,1.42c0,0.7-0.25,1.27-0.72,1.69c-0.5,0.42-1.2,0.62-2.12,0.6l-0.38,2.79c0.6-0.17,1.12-0.25,1.57-0.25
				c0.67,0,1.22,0.25,1.7,0.75c0.45,0.49,0.7,1.19,0.7,2.04c0,0.93-0.25,1.65-0.72,2.17c-0.5,0.54-1.1,0.8-1.79,0.8
				c-0.65,0-1.22-0.22-1.67-0.65c-0.48-0.45-0.75-1.1-0.88-1.94L138.18,67.42z"/>
			<path style="fill:#75263B;" d="M50.82,138.64l11.15-6.44c-1.64-0.49-3.1-1.34-4.45-2.52l2.7-1.56c0.68,0.64,1.66,1.2,2.88,1.7
				c1.23,0.5,2.41,0.65,3.55,0.42l1.39,2.42l-15.51,8.95L50.82,138.64z M58.69,144.01c-1.17,0.96-1.84,1.98-2.05,3.12
				c-0.22,1.1,0.03,2.29,0.72,3.49c0.96,1.66,2.38,2.68,4.23,2.99c1.86,0.33,4.21-0.33,7.01-1.95c2.78-1.61,4.47-3.27,5.13-4.97
				c0.62-1.72,0.49-3.33-0.42-4.91c-0.83-1.44-1.98-2.34-3.5-2.72c-1.49-0.38-3.02-0.1-4.58,0.8c-1.51,0.87-2.49,2.01-2.9,3.43
				c-0.44,1.43-0.29,2.73,0.41,3.96c0.65,1.12,1.62,1.8,2.9,2.03c-1.83,0.92-3.16,1.31-3.97,1.2c-0.8-0.1-1.39-0.46-1.74-1.06
				c-0.28-0.5-0.38-0.96-0.26-1.4c0.11-0.47,0.43-0.91,0.97-1.31L58.69,144.01z M70.86,145.04c-0.26,0.75-0.86,1.4-1.84,1.95
				c-0.86,0.5-1.64,0.7-2.3,0.56c-0.68-0.13-1.19-0.47-1.53-1.05c-0.34-0.58-0.39-1.22-0.13-1.88c0.23-0.65,0.85-1.27,1.87-1.86
				c0.97-0.56,1.78-0.79,2.42-0.68c0.63,0.1,1.11,0.43,1.43,0.99C71.12,143.65,71.14,144.3,70.86,145.04 M80.83,158.48
				c0.57-1.45,0.44-2.92-0.43-4.43c-0.86-1.49-2.07-2.34-3.6-2.59c-1.88-0.27-4.25,0.44-7.17,2.12c-2.96,1.71-4.74,3.34-5.38,4.94
				c-0.61,1.59-0.49,3.13,0.37,4.62c0.87,1.51,2.06,2.38,3.6,2.61c1.84,0.26,4.26-0.44,7.17-2.13
				C78.34,161.94,80.13,160.21,80.83,158.48 M77.05,154.72c0.4,0.14,0.69,0.41,0.89,0.75c0.21,0.37,0.29,0.75,0.21,1.17
				c-0.07,0.39-0.38,0.88-0.96,1.47c-0.57,0.56-1.77,1.37-3.58,2.41c-1.81,1.05-3.17,1.69-4.03,1.93c-0.67,0.18-1.2,0.21-1.6,0.07
				c-0.38-0.16-0.67-0.42-0.89-0.79c-0.2-0.34-0.28-0.73-0.22-1.14c0.07-0.41,0.41-0.89,0.96-1.47c0.56-0.56,1.77-1.37,3.58-2.41
				c1.82-1.05,3.16-1.71,4.04-1.92C76.13,154.58,76.67,154.56,77.05,154.72 M72.28,175.81l1.65,2.85l3.1-1.79l1.11,1.92l2.61-1.51
				l-1.11-1.92l9.79-5.65L88,167.22l-13.68-1.02l-2.59,1.49l3.65,6.32L72.28,175.81z M77.99,172.51l-2.05-3.56l7.32,0.52
				L77.99,172.51z"/>
			<path style="fill:#75263B;" d="M176.76,177.25l-11.15-6.44c0.39,1.66,0.39,3.36,0.04,5.12l-2.7-1.56
				c0.21-0.91,0.2-2.04,0.03-3.34c-0.19-1.32-0.65-2.42-1.41-3.29l1.39-2.41l15.51,8.96L176.76,177.25z M171.86,163.41
				c0.76-0.02,1.54-0.32,2.3-0.88c-0.15,1.1,0.02,2.05,0.48,2.9c0.46,0.81,1.12,1.45,1.94,1.93c1.53,0.88,3.03,1.02,4.53,0.43
				c1.29-0.49,2.34-1.47,3.15-2.87c0.87-1.51,1.11-2.98,0.75-4.4c-0.38-1.43-1.26-2.54-2.69-3.36c-0.87-0.5-1.77-0.73-2.68-0.65
				c-0.92,0.05-1.8,0.43-2.63,1.07c0.08-0.84-0.05-1.61-0.4-2.3c-0.32-0.7-0.86-1.24-1.58-1.66c-1.17-0.67-2.35-0.81-3.57-0.45
				c-1.21,0.4-2.25,1.32-3.1,2.78c-0.85,1.47-1.12,2.84-0.85,4.05c0.28,1.26,1.01,2.2,2.17,2.87
				C170.38,163.25,171.1,163.44,171.86,163.41 M173.21,160.48c-0.54,0.15-1.09,0.06-1.68-0.28c-0.56-0.32-0.92-0.76-1.04-1.29
				c-0.15-0.54-0.06-1.1,0.27-1.66c0.31-0.54,0.74-0.89,1.25-1.03c0.54-0.14,1.06-0.05,1.63,0.28c0.58,0.34,0.97,0.76,1.09,1.29
				c0.15,0.55,0.06,1.1-0.27,1.66C174.16,159.99,173.72,160.35,173.21,160.48 M180.26,164.76c-0.72,0.15-1.46-0.01-2.28-0.49
				c-0.58-0.33-1.02-0.82-1.31-1.45c-0.29-0.65-0.24-1.34,0.18-2.05c0.36-0.63,0.89-1.01,1.56-1.17c0.67-0.16,1.36-0.02,2.1,0.41
				c0.82,0.47,1.34,1.03,1.56,1.68c0.19,0.66,0.13,1.28-0.24,1.91C181.46,164.22,180.95,164.61,180.26,164.76 M175.44,150.68
				l3.89-6.73c0.95,2.39,2.3,4.64,4.03,6.76c1.74,2.13,3.67,3.82,5.77,5.09l1.65-2.85c-1.36-0.78-2.79-1.9-4.25-3.35
				c-1.47-1.45-2.72-3.06-3.75-4.81c-1.06-1.76-1.74-3.27-2.07-4.59l-2.15-1.24l-5.85,10.14L175.44,150.68z M197.89,134.32
				l-3.4,5.89c-0.18-0.33-0.34-0.69-0.49-1.09c-0.13-0.42-0.36-1.33-0.67-2.77c-0.31-1.42-0.6-2.45-0.85-3.08
				c-0.38-0.94-0.8-1.7-1.27-2.32c-0.52-0.61-1.09-1.12-1.8-1.53c-1.21-0.69-2.49-0.86-3.82-0.45c-1.32,0.39-2.42,1.36-3.29,2.87
				c-0.81,1.4-1.1,2.76-0.93,4.09c0.15,1.32,1.02,2.57,2.53,3.68l2.01-2.78c-0.84-0.54-1.34-1.11-1.49-1.69
				c-0.15-0.58-0.06-1.19,0.28-1.79c0.37-0.62,0.83-1.02,1.4-1.18c0.55-0.14,1.16-0.02,1.81,0.36c0.61,0.35,1.1,0.89,1.47,1.65
				c0.28,0.56,0.64,1.87,1.1,3.91c0.6,2.56,1.19,4.37,1.79,5.46c0.6,1.1,1.4,2.02,2.37,2.72l5.99-10.37L197.89,134.32z"/>
			<path style="fill:#75263B;" d="M102.34,88.32h2.57v5.01h5.03v-5.01h2.58v12.73h-2.58v-5.56h-5.03v5.56h-2.57V88.32z
				 M115.18,101.05h9.67v-2.15h-7.11v-3.45h6.4V93.3h-6.4v-2.83h6.88v-2.15h-9.44V101.05z M138.5,101.04l-5.08-12.72h-2.72
				l-4.95,12.72h2.72l1.05-2.9h5.1l1.1,2.9H138.5z M133.77,96.02h-3.46l1.72-4.73L133.77,96.02z M139.86,88.32v12.72h4.84
				c0.96,0,1.7-0.09,2.27-0.27c0.76-0.25,1.36-0.59,1.81-1.01c0.59-0.59,1.03-1.33,1.35-2.26c0.27-0.75,0.39-1.65,0.39-2.7
				c0-1.19-0.13-2.2-0.41-3c-0.28-0.81-0.67-1.51-1.21-2.06c-0.53-0.56-1.17-0.96-1.92-1.17c-0.56-0.16-1.36-0.25-2.44-0.25H139.86z
				 M142.44,90.47h1.15c1.05,0,1.74,0.05,2.1,0.13c0.48,0.11,0.89,0.3,1.19,0.61c0.32,0.29,0.57,0.71,0.73,1.23
				c0.18,0.53,0.26,1.28,0.26,2.27c0,0.98-0.08,1.76-0.26,2.33c-0.16,0.57-0.39,0.97-0.67,1.22c-0.27,0.25-0.61,0.43-1.04,0.53
				c-0.32,0.07-0.83,0.11-1.54,0.11h-1.92V90.47z"/>
			<path style="fill:#75263B;" d="M136.52,155.73l1.29-2.23l4.34,2.5l2.51-4.36l-4.34-2.5l1.29-2.23l11.02,6.36l-1.29,2.23
				l-4.82-2.78l-2.52,4.35l4.82,2.79l-1.29,2.23L136.52,155.73z M159.7,141.04l-13.56-1.96l-1.36,2.35l8.54,10.66l1.36-2.36
				l-1.98-2.35l2.55-4.42l3.06,0.5L159.7,141.04z M152.98,142.63l-1.74,3l-3.23-3.86L152.98,142.63z M160.39,139.84l1.19-2.06
				l-7.19-4.15l9.75-0.3l1.29-2.23l-11.02-6.36l-1.19,2.06l7.35,4.25l-9.96,0.26l-1.25,2.17L160.39,139.84z M155.77,122.39
				l11.02,6.36l2.42-4.19c0.48-0.83,0.78-1.52,0.9-2.1c0.17-0.78,0.18-1.47,0.03-2.07c-0.21-0.8-0.64-1.56-1.28-2.3
				c-0.51-0.61-1.23-1.17-2.14-1.69c-1.03-0.6-1.97-1-2.81-1.15c-0.85-0.16-1.64-0.17-2.38,0.01c-0.76,0.18-1.42,0.54-1.98,1.08
				c-0.42,0.41-0.9,1.06-1.43,1.99L155.77,122.39z M158.92,121.23l0.58-1c0.53-0.91,0.92-1.48,1.16-1.75
				c0.33-0.36,0.71-0.62,1.12-0.73c0.4-0.14,0.9-0.14,1.43-0.02c0.55,0.11,1.24,0.41,2.1,0.91c0.84,0.49,1.47,0.96,1.88,1.4
				c0.41,0.42,0.65,0.83,0.73,1.2c0.08,0.35,0.06,0.74-0.05,1.16c-0.1,0.31-0.33,0.78-0.68,1.4l-0.96,1.66L158.92,121.23z"/>
			<path style="fill:#75263B;" d="M88.64,112.32l1.29,2.23l-4.34,2.51l2.52,4.36l4.34-2.51l1.29,2.23l-11.02,6.36l-1.29-2.23
				l4.81-2.78l-2.51-4.35l-4.82,2.78l-1.29-2.23L88.64,112.32z M84.04,129.8l4.83,8.37l1.87-1.08l-3.55-6.16l2.98-1.72l3.2,5.54
				l1.87-1.08l-3.2-5.54l2.45-1.42l3.44,5.96l1.86-1.07l-4.72-8.17L84.04,129.8z M95.7,150l8.48-10.77l-1.35-2.35l-13.5,2.06
				l1.36,2.35l3.04-0.54l2.55,4.42l-1.95,2.4L95.7,150z M97.69,143.39l-1.73-3.01l4.96-0.87L97.69,143.39z M96.39,151.19l1.29,2.23
				l4.6-2.65l0.26,0.45c0.29,0.5,0.47,0.92,0.53,1.19c0.04,0.28,0.02,0.61-0.08,0.93c-0.09,0.34-0.42,1.05-0.94,2.1l-1.47,3
				l1.54,2.66l1.37-2.6c0.54-1.01,0.9-1.79,1.06-2.29c0.16-0.5,0.24-1.08,0.24-1.72c0.7,0.89,1.46,1.42,2.27,1.59
				c0.82,0.18,1.64,0.04,2.48-0.45c0.64-0.37,1.13-0.87,1.45-1.49c0.33-0.6,0.44-1.24,0.33-1.9c-0.12-0.63-0.51-1.55-1.19-2.74
				l-2.7-4.68L96.39,151.19z M104.04,149.75l2.8-1.62l1,1.74c0.52,0.89,0.81,1.44,0.89,1.64c0.17,0.4,0.18,0.76,0.05,1.08
				c-0.11,0.33-0.35,0.61-0.71,0.82c-0.34,0.2-0.66,0.28-0.97,0.25c-0.31-0.03-0.57-0.14-0.82-0.35c-0.25-0.22-0.68-0.86-1.29-1.92
				L104.04,149.75z M104.24,164.78l1.28,2.22l9.16-5.28l1.88,3.26l1.87-1.07l-5.05-8.76l-1.87,1.08l1.89,3.28L104.24,164.78z"/>
		</g>
		<g>
			<path style="fill:#E6B012;" d="M112.95,238.48l-11.86-1.65c0.29-1.16,0.84-2.25,1.63-3.22c0.79-0.97,2.24-2.21,4.38-3.72
				c1.72-1.19,2.8-2.03,3.21-2.5c0.57-0.63,0.88-1.28,0.98-1.98c0.1-0.74-0.01-1.36-0.36-1.81c-0.36-0.47-0.9-0.75-1.61-0.85
				c-0.69-0.1-1.29,0.05-1.77,0.41c-0.48,0.36-0.83,1.04-1.01,2.02l-3.33-0.82c0.46-1.82,1.28-3.09,2.45-3.73
				c1.18-0.67,2.54-0.9,4.14-0.68c1.73,0.24,3.04,0.9,3.9,1.98c0.88,1.08,1.21,2.33,1.02,3.71c-0.11,0.81-0.36,1.53-0.74,2.24
				c-0.39,0.67-0.94,1.35-1.67,2.05c-0.49,0.46-1.34,1.12-2.53,1.94c-1.22,0.84-1.98,1.38-2.32,1.67c-0.32,0.28-0.58,0.58-0.83,0.87
				l6.73,0.93L112.95,238.48z M125.45,222.89c-0.94-1.24-2.27-1.9-4.01-1.94c-1.71-0.05-3.08,0.54-4.08,1.71
				c-1.21,1.46-1.84,3.86-1.93,7.22c-0.09,3.41,0.37,5.79,1.41,7.15c1.03,1.35,2.41,2.06,4.13,2.1c1.75,0.05,3.1-0.52,4.1-1.71
				c1.18-1.44,1.85-3.86,1.93-7.22C127.08,226.81,126.55,224.38,125.45,222.89 M120.26,224.15c0.33-0.27,0.71-0.38,1.11-0.37
				c0.42,0.01,0.79,0.14,1.11,0.43c0.29,0.26,0.55,0.79,0.76,1.59c0.18,0.78,0.24,2.23,0.18,4.31c-0.05,2.09-0.22,3.58-0.47,4.45
				c-0.19,0.67-0.45,1.13-0.78,1.4c-0.33,0.24-0.7,0.36-1.13,0.34c-0.4-0.02-0.77-0.14-1.08-0.4c-0.32-0.28-0.55-0.81-0.76-1.59
				c-0.18-0.77-0.24-2.22-0.18-4.31c0.06-2.09,0.19-3.58,0.47-4.44C119.67,224.85,119.93,224.38,120.26,224.15 M137.48,222.08
				c-1.08-1.13-2.47-1.64-4.2-1.48c-1.71,0.15-3,0.88-3.86,2.16c-1.03,1.59-1.4,4.05-1.11,7.39c0.3,3.4,1.02,5.71,2.2,6.95
				c1.18,1.22,2.63,1.77,4.34,1.63c1.74-0.15,3.02-0.86,3.88-2.16c1.01-1.57,1.4-4.04,1.11-7.39
				C139.55,225.8,138.74,223.44,137.48,222.08 M132.47,223.91c0.3-0.3,0.66-0.46,1.06-0.49c0.42-0.04,0.8,0.06,1.15,0.3
				c0.31,0.22,0.63,0.72,0.92,1.49c0.27,0.75,0.49,2.18,0.67,4.27c0.18,2.08,0.18,3.58,0.04,4.47c-0.12,0.68-0.33,1.18-0.62,1.48
				c-0.3,0.28-0.66,0.43-1.09,0.47c-0.39,0.03-0.78-0.06-1.12-0.28c-0.34-0.25-0.64-0.74-0.93-1.49c-0.26-0.76-0.49-2.18-0.66-4.26
				c-0.18-2.09-0.21-3.58-0.04-4.47C131.96,224.68,132.16,224.18,132.47,223.91 M139.99,223.48l7.61-1.55
				c-1.16,2.29-1.95,4.79-2.39,7.5c-0.44,2.7-0.42,5.26,0.02,7.69l3.22-0.65c-0.31-1.54-0.43-3.34-0.31-5.4
				c0.11-2.06,0.49-4.07,1.12-5.99c0.62-1.95,1.3-3.47,2.06-4.59l-0.5-2.44l-11.46,2.33L139.99,223.48z"/>
			<path style="fill:#E6B012;" d="M41.91,205.11c-1.11-1.16-1.87-2.07-2.33-2.72c-0.45-0.67-0.73-1.38-0.85-2.11
				c-0.13-0.74-0.07-1.5,0.15-2.28c0.23-0.77,0.63-1.46,1.26-2.07c0.69-0.66,1.5-1.08,2.42-1.26c0.92-0.18,1.84-0.08,2.73,0.28
				c-0.61-1.12-0.8-2.23-0.65-3.32c0.16-1.05,0.66-2,1.49-2.8c0.67-0.64,1.48-1.1,2.38-1.38c0.92-0.3,1.84-0.36,2.71-0.18
				c0.89,0.16,1.74,0.6,2.58,1.31c0.53,0.43,1.7,1.57,3.49,3.44l4.76,4.96l-14.57,13.95L41.91,205.11z M50.45,202.43l-1.83-1.91
				c-1.12-1.16-1.81-1.85-2.11-2.08c-0.55-0.45-1.1-0.7-1.66-0.71c-0.56-0.01-1.08,0.22-1.55,0.66c-0.45,0.43-0.7,0.9-0.75,1.42
				c-0.06,0.52,0.15,1.06,0.56,1.6c0.24,0.33,1.01,1.18,2.34,2.57l1.62,1.69L50.45,202.43z M56.76,196.39l-2.61-2.73
				c-1.01-1.06-1.68-1.71-2.01-1.94c-0.49-0.35-1.03-0.54-1.6-0.49c-0.58,0.01-1.11,0.28-1.61,0.76c-0.45,0.43-0.72,0.88-0.83,1.38
				c-0.09,0.52-0.02,1.04,0.21,1.56c0.25,0.54,1.02,1.48,2.31,2.82l2.26,2.37L56.76,196.39z M48.9,182.69l-8.26-12.92l-2.88,1.84
				l6.08,9.5l-4.61,2.95l-5.47-8.55l-2.87,1.84l5.46,8.55l-3.77,2.42l-5.88-9.19l-2.87,1.84l8.07,12.61L48.9,182.69z M37.83,163.24
				l-1.54-3.76l-15.52,6.38l-2.27-5.52l-3.16,1.3l6.1,14.84l3.16-1.3l-2.28-5.56L37.83,163.24z M33.49,152.26l-0.82-4l-8.64,1.77
				l-1.6-7.82l8.65-1.76l-0.82-4l-19.78,4.04l0.82,4.01l7.79-1.6l1.6,7.82l-7.79,1.59l0.82,4L33.49,152.26z M9.87,133.56l10.77-0.18
				c2.25-0.04,3.97-0.18,5.12-0.48c0.76-0.18,1.52-0.59,2.21-1.17c0.7-0.61,1.28-1.41,1.71-2.4c0.41-1.02,0.61-2.47,0.58-4.41
				c-0.03-1.58-0.25-2.87-0.68-3.85c-0.41-1.01-0.96-1.79-1.68-2.37c-0.68-0.58-1.54-0.96-2.56-1.17c-0.99-0.21-2.71-0.29-5.14-0.25
				l-10.6,0.17l0.07,4.09l11.16-0.18c1.61-0.03,2.73,0.01,3.44,0.11c0.67,0.13,1.28,0.46,1.77,1.04c0.45,0.59,0.72,1.46,0.75,2.61
				c0.02,1.13-0.22,2.03-0.72,2.69c-0.49,0.66-1.13,1.09-1.95,1.28c-0.54,0.12-1.66,0.2-3.38,0.22L9.8,129.5L9.87,133.56z
				 M30.23,113.78l0.75-3.7l-12.9-2.62l14.53-5.36l0.81-4.01l-19.78-4.02l-0.75,3.7l13.2,2.68l-14.85,5.41l-0.79,3.89L30.23,113.78z
				 M34.48,94.89l5.93-14.14l-3.14-1.32L32.9,89.82l-5.04-2.11l3.92-9.36l-3.15-1.32l-3.93,9.35l-4.13-1.74L24.8,74.6l-3.15-1.32
				l-5.79,13.8L34.48,94.89z M41.19,69.4l4.39-6.21l-3.15-2.22l-4.39,6.21L41.19,69.4z M60.33,45.16c0.73,1.32,1.04,2.51,0.91,3.54
				c-0.12,1.01-0.59,1.92-1.38,2.64c-1.09,0.98-2.35,1.35-3.75,1.17c-1.39-0.19-2.96-1.24-4.66-3.12c-1.61-1.81-2.41-3.4-2.43-4.82
				c-0.02-1.42,0.52-2.62,1.64-3.62c0.79-0.72,1.67-1.12,2.65-1.17c0.96-0.07,1.88,0.25,2.77,0.85l2.34-3.42
				c-1.41-0.89-2.76-1.34-3.99-1.37c-2.13-0.05-4.11,0.74-5.95,2.39c-2.1,1.88-3.18,4.1-3.21,6.63c-0.06,2.55,1.02,5.06,3.26,7.56
				c2.13,2.37,4.45,3.65,6.95,3.87c2.51,0.21,4.74-0.58,6.76-2.39c1.59-1.43,2.58-3.03,2.91-4.77c0.33-1.74-0.02-3.61-1.03-5.66
				L60.33,45.16z M62.8,33.37c-0.13-1.13-0.02-2.23,0.26-3.33c0.28-1.1,0.73-2.07,1.34-2.88c0.85-1.07,1.96-2.03,3.4-2.86
				c2.57-1.48,5.11-1.86,7.56-1.15c2.47,0.73,4.53,2.5,6.15,5.34c1.63,2.84,2.11,5.49,1.51,7.94c-0.61,2.5-2.22,4.46-4.79,5.93
				c-2.62,1.5-5.12,1.89-7.57,1.19c-2.45-0.71-4.49-2.46-6.09-5.24C63.55,36.54,62.95,34.87,62.8,33.37 M72.13,39.81
				c1.49,0.51,2.93,0.36,4.35-0.45c1.42-0.81,2.27-1.98,2.59-3.53c0.33-1.52-0.1-3.29-1.26-5.32c-1.15-2-2.46-3.27-3.91-3.74
				c-1.44-0.48-2.87-0.3-4.33,0.54c-1.44,0.83-2.34,1.99-2.67,3.51c-0.3,1.51,0.09,3.27,1.25,5.29
				C69.28,38.1,70.6,39.32,72.13,39.81 M84.08,21.97c0.12-1.13,0.48-2.18,0.98-3.2c0.51-1.02,1.16-1.87,1.93-2.52
				c1.06-0.86,2.35-1.56,3.94-2.05c2.82-0.88,5.39-0.7,7.63,0.52c2.25,1.25,3.87,3.43,4.84,6.55c0.97,3.12,0.86,5.81-0.26,8.08
				c-1.14,2.31-3.14,3.87-5.96,4.75c-2.88,0.9-5.4,0.74-7.65-0.48c-2.24-1.22-3.86-3.37-4.81-6.44
				C84.12,25.23,83.9,23.47,84.08,21.97 M91.78,30.29c1.34,0.82,2.79,0.99,4.35,0.5c1.56-0.48,2.64-1.45,3.29-2.88
				c0.65-1.41,0.62-3.24-0.08-5.47c-0.68-2.21-1.69-3.73-2.99-4.5c-1.3-0.77-2.74-0.92-4.35-0.42c-1.59,0.5-2.71,1.43-3.36,2.85
				c-0.63,1.41-0.63,3.21,0.07,5.44C89.38,28,90.4,29.48,91.78,30.29 M108.68,30.61l4.03-0.37l-0.55-6.06l2.98-3.66l6.39,8.93
				l5.24-0.48l-9.08-11.53l6.86-8.52l-5.47,0.5l-7.38,9.67l-0.81-8.92l-4.03,0.37L108.68,30.61z M127.82,29.01l3.75,0.47l1.97-15.75
				l2,16.25l3.89,0.49l5.94-15.25l-1.97,15.75l3.75,0.47l2.51-20.03l-6.07-0.76l-5.29,13.2l-1.93-14.11l-6.04-0.75L127.82,29.01z
				 M163.01,36.94l-0.1-4.91l-7.61-2.73l-3.11,3.77l-4.06-1.45l14.2-16.35l4.06,1.45l0.79,21.71L163.01,36.94z M162.73,20.4
				l-5.1,6.14l5.18,1.85L162.73,20.4z M168.2,39.15l3.23,1.96l6.84-11.24l0.11,15.48l3.49,2.12l10.49-17.23l-3.22-1.96l-7,11.5
				l-0.05-15.8l-3.39-2.06L168.2,39.15z M205.06,40.59l-7.91,7.3c-1.66,1.53-2.84,2.78-3.5,3.76c-0.44,0.64-0.73,1.45-0.87,2.34
				c-0.12,0.91-0.02,1.89,0.32,2.92c0.37,1.03,1.19,2.24,2.5,3.67c1.07,1.15,2.09,1.98,3.07,2.41c0.98,0.48,1.91,0.69,2.82,0.65
				c0.9-0.03,1.79-0.31,2.69-0.83c0.88-0.51,2.22-1.58,4-3.23l7.78-7.18l-2.77-3L205,56.98c-1.18,1.09-2.05,1.81-2.64,2.2
				c-0.6,0.36-1.26,0.51-2.01,0.4c-0.73-0.13-1.51-0.6-2.29-1.45c-0.76-0.83-1.19-1.66-1.26-2.48c-0.06-0.82,0.13-1.57,0.61-2.25
				c0.32-0.45,1.1-1.25,2.37-2.42l8.03-7.41L205.06,40.59z M203.2,68.81l1.95,3.23l11.27-6.8l-7.05,13.78l2.11,3.5l17.27-10.43
				l-1.95-3.23l-11.53,6.97l7.26-14.03l-2.05-3.4L203.2,68.81z M212.69,85.81l1.6,3.76l18.57-7.9l-1.6-3.76L212.69,85.81z
				 M217.05,97.46l1.16,4.21l21.36,1.59l-1.15-4.16l-15.71-0.81l13.04-8.89l-1.17-4.23L217.05,97.46z M220.14,109.81l1.26,15.28
				l3.4-0.28l-0.92-11.23l5.45-0.45l0.83,10.11l3.4-0.28l-0.83-10.11l4.46-0.37l0.9,10.87l3.4-0.28l-1.23-14.91L220.14,109.81z
				 M241.42,129.89l-0.95,8.51c-0.24,2.16-0.61,3.71-1.05,4.62c-0.48,0.94-1.21,1.65-2.19,2.11c-0.99,0.48-2.09,0.67-3.27,0.54
				c-1.51-0.16-2.69-0.75-3.57-1.76c-0.88-0.98-1.35-2.36-1.41-4.16c-0.6,0.81-1.24,1.48-1.92,1.97c-0.68,0.49-1.86,1.16-3.5,1.93
				l-4.19,2.03l0.53-4.85l4.7-2.45c1.66-0.87,2.74-1.45,3.18-1.8c0.44-0.32,0.76-0.71,0.97-1.11c0.19-0.4,0.35-1.09,0.46-2.02
				l0.09-0.81l-8.38-0.94l0.46-4.06L241.42,129.89z M232.15,136c-0.22,1.93-0.27,3.15-0.16,3.67c0.12,0.49,0.36,0.89,0.72,1.21
				c0.36,0.32,0.85,0.52,1.47,0.59c0.67,0.07,1.22-0.06,1.68-0.38c0.46-0.29,0.79-0.76,0.95-1.43c0.09-0.32,0.23-1.3,0.41-2.93
				l0.36-3.16l-5.1-0.57L232.15,136z M225.42,147.88c-2.23-0.41-4.12-0.15-5.66,0.78c-1.54,0.96-2.69,2.63-3.46,5.08
				c-0.52,1.66-0.73,3.14-0.62,4.38c0.13,1.28,0.55,2.36,1.33,3.29c0.77,0.92,1.7,1.54,2.8,1.89c1.24,0.39,2.33,0.47,3.33,0.22
				c0.97-0.25,1.87-0.76,2.61-1.53c0.77-0.74,1.66-1.99,2.72-3.75c1.02-1.75,1.83-2.79,2.41-3.14c0.45-0.3,0.88-0.37,1.34-0.22
				c0.51,0.16,0.82,0.49,1.02,1c0.25,0.79,0.19,1.74-0.17,2.87c-0.34,1.08-0.82,1.84-1.42,2.24c-0.61,0.43-1.41,0.55-2.46,0.4
				l-1.07,3.95c1.8,0.48,3.41,0.31,4.85-0.6c1.43-0.88,2.55-2.53,3.31-4.95c0.47-1.48,0.65-2.81,0.53-4c-0.09-1.18-0.52-2.17-1.18-3
				c-0.68-0.84-1.5-1.39-2.5-1.71c-1.5-0.48-2.98-0.29-4.43,0.55c-1.01,0.6-2.11,1.88-3.29,3.77c-0.88,1.49-1.51,2.45-1.81,2.85
				c-0.43,0.61-0.87,0.97-1.28,1.14c-0.41,0.17-0.83,0.18-1.28,0.04c-0.7-0.22-1.21-0.74-1.55-1.55c-0.34-0.79-0.31-1.81,0.09-3.07
				c0.37-1.18,0.97-2.03,1.8-2.53c0.81-0.51,1.87-0.68,3.23-0.49L225.42,147.88z M212.88,163.86l-1.74,3.69l18.26,8.58l1.74-3.7
				L212.88,163.86z M207.4,174.37l-2.17,3.43l14.18,8.96l-3.2,5.05l2.88,1.82l8.58-13.55l-2.88-1.82l-3.21,5.07L207.4,174.37z
				 M197.28,188.18l-2.75,2.99l6.22,5.72l3.62,13.39l3.18-3.46l-2.73-8.82l9.08,1.91l3.22-3.51l-13.61-2.48L197.28,188.18z"/>
			<polygon style="fill:#E6B012;" points="79.59,216.03 72.99,216.75 71.64,223.29 68.91,217.22 62.28,217.94 67.22,213.46 
				64.5,207.41 70.26,210.69 75.18,206.24 73.83,212.73 			"/>
			<polygon style="fill:#E6B012;" points="191.24,203.82 188.89,210.03 194.1,214.2 187.45,213.88 185.09,220.12 183.33,213.68 
				176.71,213.37 182.25,209.73 180.51,203.32 185.69,207.46 			"/>
		</g>
	</g>
</g>
</svg>
